<mxfile host="app.diagrams.net" modified="2023-01-15T11:53:18.935Z" agent="5.0 (Windows NT 10.0; Win64; x64) AppleWebKit/537.36 (KHTML, like Gecko) Chrome/108.0.0.0 Safari/537.36" etag="hGXsTX_mVlag0r-1azuy" version="20.8.5" type="github">
  <diagram id="fnLHk5_FQdHGoSxvLHbr" name="페이지-1">
    <mxGraphModel dx="4513" dy="644" grid="0" gridSize="10" guides="1" tooltips="1" connect="1" arrows="1" fold="1" page="1" pageScale="1" pageWidth="3300" pageHeight="4681" math="0" shadow="0">
      <root>
        <mxCell id="0" />
        <mxCell id="1" parent="0" />
        <mxCell id="D5vVqQVgLM8rnLh1jBMB-72" value="" style="group" parent="1" vertex="1" connectable="0">
          <mxGeometry x="-1605" y="634" width="230" height="180" as="geometry" />
        </mxCell>
        <mxCell id="D5vVqQVgLM8rnLh1jBMB-73" value="" style="shape=folder;fontStyle=1;spacingTop=10;tabWidth=95;tabHeight=30;tabPosition=left;html=1;" parent="D5vVqQVgLM8rnLh1jBMB-72" vertex="1">
          <mxGeometry width="230" height="180" as="geometry" />
        </mxCell>
        <mxCell id="D5vVqQVgLM8rnLh1jBMB-74" value="카메라 사진 업로드" style="swimlane;fontStyle=1;align=center;verticalAlign=top;childLayout=stackLayout;horizontal=1;startSize=26;horizontalStack=0;resizeParent=1;resizeParentMax=0;resizeLast=0;collapsible=1;marginBottom=0;" parent="D5vVqQVgLM8rnLh1jBMB-72" vertex="1">
          <mxGeometry x="10" y="40" width="210" height="134" as="geometry" />
        </mxCell>
        <mxCell id="D5vVqQVgLM8rnLh1jBMB-75" value="" style="line;strokeWidth=1;fillColor=none;align=left;verticalAlign=middle;spacingTop=-1;spacingLeft=3;spacingRight=3;rotatable=0;labelPosition=right;points=[];portConstraint=eastwest;strokeColor=inherit;" parent="D5vVqQVgLM8rnLh1jBMB-74" vertex="1">
          <mxGeometry y="26" width="210" height="8" as="geometry" />
        </mxCell>
        <mxCell id="D5vVqQVgLM8rnLh1jBMB-76" value="- save_photo(String path,&#xa;                             uri uri)&#xa;- check_time_camera(datetime time):&#xa;                            boolean check&#xa;" style="text;strokeColor=none;fillColor=none;align=left;verticalAlign=top;spacingLeft=4;spacingRight=4;overflow=hidden;rotatable=0;points=[[0,0.5],[1,0.5]];portConstraint=eastwest;" parent="D5vVqQVgLM8rnLh1jBMB-74" vertex="1">
          <mxGeometry y="34" width="210" height="100" as="geometry" />
        </mxCell>
        <mxCell id="D5vVqQVgLM8rnLh1jBMB-77" value="촬영 패키지" style="text;html=1;align=center;verticalAlign=middle;resizable=0;points=[];autosize=1;strokeColor=none;fillColor=none;" parent="D5vVqQVgLM8rnLh1jBMB-72" vertex="1">
          <mxGeometry width="90" height="30" as="geometry" />
        </mxCell>
        <mxCell id="D5vVqQVgLM8rnLh1jBMB-81" style="edgeStyle=orthogonalEdgeStyle;rounded=0;orthogonalLoop=1;jettySize=auto;html=1;entryX=0.471;entryY=1.019;entryDx=0;entryDy=0;endArrow=none;endFill=0;exitX=0.5;exitY=0;exitDx=0;exitDy=0;entryPerimeter=0;" parent="1" source="D5vVqQVgLM8rnLh1jBMB-74" target="D5vVqQVgLM8rnLh1jBMB-86" edge="1">
          <mxGeometry relative="1" as="geometry">
            <Array as="points">
              <mxPoint x="-1497" y="674" />
              <mxPoint x="-1497" y="631" />
              <mxPoint x="-1496" y="631" />
              <mxPoint x="-1496" y="466" />
            </Array>
          </mxGeometry>
        </mxCell>
        <mxCell id="Ux_mzPihkgH7S6a4n0nw-1" style="edgeStyle=orthogonalEdgeStyle;rounded=0;orthogonalLoop=1;jettySize=auto;html=1;endArrow=none;endFill=0;" parent="1" source="D5vVqQVgLM8rnLh1jBMB-89" target="D5vVqQVgLM8rnLh1jBMB-44" edge="1">
          <mxGeometry relative="1" as="geometry" />
        </mxCell>
        <mxCell id="vbS9MfJy5DjZ6YqkpRvB-5" value="" style="group" vertex="1" connectable="0" parent="1">
          <mxGeometry x="-1300" y="87" width="445" height="331" as="geometry" />
        </mxCell>
        <mxCell id="D5vVqQVgLM8rnLh1jBMB-31" value="" style="shape=folder;fontStyle=1;spacingTop=10;tabWidth=110;tabHeight=26;tabPosition=left;html=1;" parent="vbS9MfJy5DjZ6YqkpRvB-5" vertex="1">
          <mxGeometry y="2.4" width="445" height="328.6" as="geometry" />
        </mxCell>
        <mxCell id="D5vVqQVgLM8rnLh1jBMB-44" value="Device_ctrl" style="swimlane;fontStyle=1;align=center;verticalAlign=top;childLayout=stackLayout;horizontal=1;startSize=26;horizontalStack=0;resizeParent=1;resizeParentMax=0;resizeLast=0;collapsible=1;marginBottom=0;" parent="vbS9MfJy5DjZ6YqkpRvB-5" vertex="1">
          <mxGeometry x="15.35714285714286" y="92.74396135265701" width="181" height="185.00454106280193" as="geometry" />
        </mxCell>
        <mxCell id="D5vVqQVgLM8rnLh1jBMB-45" value="- int : mode&#xa;" style="text;strokeColor=none;fillColor=none;align=left;verticalAlign=top;spacingLeft=4;spacingRight=4;overflow=hidden;rotatable=0;points=[[0,0.5],[1,0.5]];portConstraint=eastwest;" parent="D5vVqQVgLM8rnLh1jBMB-44" vertex="1">
          <mxGeometry y="26" width="181" height="19.188405797101453" as="geometry" />
        </mxCell>
        <mxCell id="D5vVqQVgLM8rnLh1jBMB-46" value="" style="line;strokeWidth=1;fillColor=none;align=left;verticalAlign=middle;spacingTop=-1;spacingLeft=3;spacingRight=3;rotatable=0;labelPosition=right;points=[];portConstraint=eastwest;strokeColor=inherit;" parent="D5vVqQVgLM8rnLh1jBMB-44" vertex="1">
          <mxGeometry y="45.18840579710145" width="181" height="6.396135265700484" as="geometry" />
        </mxCell>
        <mxCell id="D5vVqQVgLM8rnLh1jBMB-47" value="- modecheck(int mode): &#xa;                            boolean&#xa;+retrieve_data(String path):&#xa;                            boolean&#xa;+exception_check(String path):&#xa;                            boolean&#xa;+ send_realon(String path,&#xa;                         boolean onoff)" style="text;strokeColor=none;fillColor=none;align=left;verticalAlign=top;spacingLeft=4;spacingRight=4;overflow=hidden;rotatable=0;points=[[0,0.5],[1,0.5]];portConstraint=eastwest;" parent="D5vVqQVgLM8rnLh1jBMB-44" vertex="1">
          <mxGeometry y="51.58454106280194" width="181" height="133.42" as="geometry" />
        </mxCell>
        <mxCell id="D5vVqQVgLM8rnLh1jBMB-48" value="장치 제어 패키지" style="text;html=1;align=center;verticalAlign=middle;resizable=0;points=[];autosize=1;strokeColor=none;fillColor=none;" parent="vbS9MfJy5DjZ6YqkpRvB-5" vertex="1">
          <mxGeometry width="110" height="30" as="geometry" />
        </mxCell>
        <mxCell id="D5vVqQVgLM8rnLh1jBMB-43" style="edgeStyle=orthogonalEdgeStyle;rounded=0;orthogonalLoop=1;jettySize=auto;html=1;endArrow=block;endFill=0;entryX=1;entryY=0.5;entryDx=0;entryDy=0;" parent="vbS9MfJy5DjZ6YqkpRvB-5" source="D5vVqQVgLM8rnLh1jBMB-100" target="D5vVqQVgLM8rnLh1jBMB-45" edge="1">
          <mxGeometry relative="1" as="geometry">
            <mxPoint x="157.41071428571448" y="176.69323671497577" as="targetPoint" />
            <Array as="points">
              <mxPoint x="207" y="82" />
              <mxPoint x="207" y="128" />
            </Array>
            <mxPoint x="257.2321428571429" y="144.71256038647354" as="sourcePoint" />
          </mxGeometry>
        </mxCell>
        <mxCell id="D5vVqQVgLM8rnLh1jBMB-35" style="edgeStyle=orthogonalEdgeStyle;rounded=0;orthogonalLoop=1;jettySize=auto;html=1;endArrow=block;endFill=0;entryX=1;entryY=0.5;entryDx=0;entryDy=0;" parent="vbS9MfJy5DjZ6YqkpRvB-5" source="D5vVqQVgLM8rnLh1jBMB-104" target="D5vVqQVgLM8rnLh1jBMB-45" edge="1">
          <mxGeometry relative="1" as="geometry">
            <mxPoint x="157.41071428571448" y="176.69323671497577" as="targetPoint" />
            <Array as="points">
              <mxPoint x="207" y="186" />
              <mxPoint x="207" y="128" />
            </Array>
            <mxPoint x="257.2321428571429" y="205.47584541062804" as="sourcePoint" />
          </mxGeometry>
        </mxCell>
        <mxCell id="D5vVqQVgLM8rnLh1jBMB-42" style="edgeStyle=orthogonalEdgeStyle;rounded=0;orthogonalLoop=1;jettySize=auto;html=1;entryX=1;entryY=0.5;entryDx=0;entryDy=0;endArrow=block;endFill=0;" parent="vbS9MfJy5DjZ6YqkpRvB-5" source="D5vVqQVgLM8rnLh1jBMB-108" target="D5vVqQVgLM8rnLh1jBMB-45" edge="1">
          <mxGeometry relative="1" as="geometry">
            <mxPoint x="157.41071428571448" y="176.69323671497577" as="targetPoint" />
            <Array as="points">
              <mxPoint x="207" y="277" />
              <mxPoint x="207" y="128" />
            </Array>
            <mxPoint x="257.2321428571429" y="280.6304347826088" as="sourcePoint" />
          </mxGeometry>
        </mxCell>
        <mxCell id="vbS9MfJy5DjZ6YqkpRvB-10" value="" style="group" vertex="1" connectable="0" parent="vbS9MfJy5DjZ6YqkpRvB-5">
          <mxGeometry x="257.23" y="33.58" width="175.77" height="285.04" as="geometry" />
        </mxCell>
        <mxCell id="D5vVqQVgLM8rnLh1jBMB-100" value="Device_ctrl_pump" style="swimlane;fontStyle=1;align=center;verticalAlign=top;childLayout=stackLayout;horizontal=1;startSize=26;horizontalStack=0;resizeParent=1;resizeParentMax=0;resizeLast=0;collapsible=1;marginBottom=0;" parent="vbS9MfJy5DjZ6YqkpRvB-10" vertex="1">
          <mxGeometry width="175.76999999999998" height="93.15860077282896" as="geometry" />
        </mxCell>
        <mxCell id="D5vVqQVgLM8rnLh1jBMB-101" value="- onoff: boolean" style="text;strokeColor=none;fillColor=none;align=left;verticalAlign=top;spacingLeft=4;spacingRight=4;overflow=hidden;rotatable=0;points=[[0,0.5],[1,0.5]];portConstraint=eastwest;" parent="D5vVqQVgLM8rnLh1jBMB-100" vertex="1">
          <mxGeometry y="26" width="175.76999999999998" height="20.787185953494678" as="geometry" />
        </mxCell>
        <mxCell id="D5vVqQVgLM8rnLh1jBMB-102" value="" style="line;strokeWidth=1;fillColor=none;align=left;verticalAlign=middle;spacingTop=-1;spacingLeft=3;spacingRight=3;rotatable=0;labelPosition=right;points=[];portConstraint=eastwest;strokeColor=inherit;" parent="D5vVqQVgLM8rnLh1jBMB-100" vertex="1">
          <mxGeometry y="46.78718595349468" width="175.76999999999998" height="6.3960572164599006" as="geometry" />
        </mxCell>
        <mxCell id="D5vVqQVgLM8rnLh1jBMB-103" value="#  pump_onoff(boolean onoff) :&#xa;                        boolean realon " style="text;strokeColor=none;fillColor=none;align=left;verticalAlign=top;spacingLeft=4;spacingRight=4;overflow=hidden;rotatable=0;points=[[0,0.5],[1,0.5]];portConstraint=eastwest;" parent="D5vVqQVgLM8rnLh1jBMB-100" vertex="1">
          <mxGeometry y="53.18324316995458" width="175.76999999999998" height="39.97535760287438" as="geometry" />
        </mxCell>
        <mxCell id="D5vVqQVgLM8rnLh1jBMB-104" value="Device_ctrl_fan" style="swimlane;fontStyle=1;align=center;verticalAlign=top;childLayout=stackLayout;horizontal=1;startSize=26;horizontalStack=0;resizeParent=1;resizeParentMax=0;resizeLast=0;collapsible=1;marginBottom=0;" parent="vbS9MfJy5DjZ6YqkpRvB-10" vertex="1">
          <mxGeometry y="95.94085824689854" width="175.76999999999998" height="93.15860077282896" as="geometry" />
        </mxCell>
        <mxCell id="D5vVqQVgLM8rnLh1jBMB-105" value="- onoff: boolean" style="text;strokeColor=none;fillColor=none;align=left;verticalAlign=top;spacingLeft=4;spacingRight=4;overflow=hidden;rotatable=0;points=[[0,0.5],[1,0.5]];portConstraint=eastwest;" parent="D5vVqQVgLM8rnLh1jBMB-104" vertex="1">
          <mxGeometry y="26" width="175.76999999999998" height="20.787185953494678" as="geometry" />
        </mxCell>
        <mxCell id="D5vVqQVgLM8rnLh1jBMB-106" value="" style="line;strokeWidth=1;fillColor=none;align=left;verticalAlign=middle;spacingTop=-1;spacingLeft=3;spacingRight=3;rotatable=0;labelPosition=right;points=[];portConstraint=eastwest;strokeColor=inherit;" parent="D5vVqQVgLM8rnLh1jBMB-104" vertex="1">
          <mxGeometry y="46.78718595349468" width="175.76999999999998" height="6.3960572164599006" as="geometry" />
        </mxCell>
        <mxCell id="D5vVqQVgLM8rnLh1jBMB-107" value="# fan_onoff(boolean onoff) :&#xa;                        boolean realon " style="text;strokeColor=none;fillColor=none;align=left;verticalAlign=top;spacingLeft=4;spacingRight=4;overflow=hidden;rotatable=0;points=[[0,0.5],[1,0.5]];portConstraint=eastwest;" parent="D5vVqQVgLM8rnLh1jBMB-104" vertex="1">
          <mxGeometry y="53.18324316995458" width="175.76999999999998" height="39.97535760287438" as="geometry" />
        </mxCell>
        <mxCell id="D5vVqQVgLM8rnLh1jBMB-108" value="Device_ctrl_led" style="swimlane;fontStyle=1;align=center;verticalAlign=top;childLayout=stackLayout;horizontal=1;startSize=26;horizontalStack=0;resizeParent=1;resizeParentMax=0;resizeLast=0;collapsible=1;marginBottom=0;" parent="vbS9MfJy5DjZ6YqkpRvB-10" vertex="1">
          <mxGeometry y="191.8817164937971" width="175.76999999999998" height="93.15860077282896" as="geometry" />
        </mxCell>
        <mxCell id="D5vVqQVgLM8rnLh1jBMB-109" value="- onoff: boolean" style="text;strokeColor=none;fillColor=none;align=left;verticalAlign=top;spacingLeft=4;spacingRight=4;overflow=hidden;rotatable=0;points=[[0,0.5],[1,0.5]];portConstraint=eastwest;" parent="D5vVqQVgLM8rnLh1jBMB-108" vertex="1">
          <mxGeometry y="26" width="175.76999999999998" height="20.787185953494678" as="geometry" />
        </mxCell>
        <mxCell id="D5vVqQVgLM8rnLh1jBMB-110" value="" style="line;strokeWidth=1;fillColor=none;align=left;verticalAlign=middle;spacingTop=-1;spacingLeft=3;spacingRight=3;rotatable=0;labelPosition=right;points=[];portConstraint=eastwest;strokeColor=inherit;" parent="D5vVqQVgLM8rnLh1jBMB-108" vertex="1">
          <mxGeometry y="46.78718595349468" width="175.76999999999998" height="6.3960572164599006" as="geometry" />
        </mxCell>
        <mxCell id="D5vVqQVgLM8rnLh1jBMB-111" value="#  led_onoff(boolean onoff) :&#xa;                        boolean realon " style="text;strokeColor=none;fillColor=none;align=left;verticalAlign=top;spacingLeft=4;spacingRight=4;overflow=hidden;rotatable=0;points=[[0,0.5],[1,0.5]];portConstraint=eastwest;" parent="D5vVqQVgLM8rnLh1jBMB-108" vertex="1">
          <mxGeometry y="53.18324316995458" width="175.76999999999998" height="39.97535760287438" as="geometry" />
        </mxCell>
        <mxCell id="D5vVqQVgLM8rnLh1jBMB-50" value="" style="shape=folder;fontStyle=1;spacingTop=10;tabWidth=90;tabHeight=28;tabPosition=left;html=1;container=0;" parent="1" vertex="1">
          <mxGeometry x="-1303" y="431" width="473" height="384" as="geometry" />
        </mxCell>
        <mxCell id="D5vVqQVgLM8rnLh1jBMB-63" value="Sensor_data" style="swimlane;fontStyle=1;align=center;verticalAlign=top;childLayout=stackLayout;horizontal=1;startSize=26;horizontalStack=0;resizeParent=1;resizeParentMax=0;resizeLast=0;collapsible=1;marginBottom=0;container=0;" parent="1" vertex="1">
          <mxGeometry x="-1288.66" y="512.71" width="238.66" height="179.29" as="geometry" />
        </mxCell>
        <mxCell id="D5vVqQVgLM8rnLh1jBMB-67" style="edgeStyle=orthogonalEdgeStyle;rounded=0;orthogonalLoop=1;jettySize=auto;html=1;endArrow=block;endFill=0;" parent="1" target="D5vVqQVgLM8rnLh1jBMB-63" edge="1" source="D5vVqQVgLM8rnLh1jBMB-116">
          <mxGeometry relative="1" as="geometry">
            <mxPoint x="-920.7639999999994" y="601.6701227272729" as="sourcePoint" />
            <mxPoint x="-1067.6666666666665" y="534.3595454545454" as="targetPoint" />
            <Array as="points">
              <mxPoint x="-1039" y="611" />
              <mxPoint x="-1039" y="550" />
            </Array>
          </mxGeometry>
        </mxCell>
        <mxCell id="D5vVqQVgLM8rnLh1jBMB-69" style="edgeStyle=orthogonalEdgeStyle;rounded=0;orthogonalLoop=1;jettySize=auto;html=1;endArrow=block;endFill=0;" parent="1" source="D5vVqQVgLM8rnLh1jBMB-124" target="D5vVqQVgLM8rnLh1jBMB-63" edge="1">
          <mxGeometry relative="1" as="geometry">
            <mxPoint x="-920.333333333333" y="739.58" as="sourcePoint" />
            <mxPoint x="-1067.6666666666665" y="534.3595454545454" as="targetPoint" />
            <Array as="points">
              <mxPoint x="-1040" y="771" />
              <mxPoint x="-1040" y="550" />
            </Array>
          </mxGeometry>
        </mxCell>
        <mxCell id="D5vVqQVgLM8rnLh1jBMB-70" style="edgeStyle=orthogonalEdgeStyle;rounded=0;orthogonalLoop=1;jettySize=auto;html=1;exitX=0;exitY=0.5;exitDx=0;exitDy=0;endArrow=block;endFill=0;" parent="1" target="D5vVqQVgLM8rnLh1jBMB-63" edge="1" source="D5vVqQVgLM8rnLh1jBMB-113">
          <mxGeometry relative="1" as="geometry">
            <mxPoint x="-920.333333333333" y="514.4436363636364" as="sourcePoint" />
            <mxPoint x="-1067.6666666666665" y="491.9299999999999" as="targetPoint" />
            <Array as="points">
              <mxPoint x="-1039" y="524" />
              <mxPoint x="-1039" y="550" />
            </Array>
          </mxGeometry>
        </mxCell>
        <mxCell id="D5vVqQVgLM8rnLh1jBMB-71" value="센서 패키지" style="text;html=1;align=center;verticalAlign=middle;resizable=0;points=[];autosize=1;strokeColor=none;fillColor=none;container=0;" parent="1" vertex="1">
          <mxGeometry x="-1303" y="431" width="90" height="30" as="geometry" />
        </mxCell>
        <mxCell id="D5vVqQVgLM8rnLh1jBMB-128" style="edgeStyle=orthogonalEdgeStyle;rounded=0;orthogonalLoop=1;jettySize=auto;html=1;endArrow=block;endFill=0;" parent="1" source="D5vVqQVgLM8rnLh1jBMB-121" target="D5vVqQVgLM8rnLh1jBMB-63" edge="1">
          <mxGeometry relative="1" as="geometry">
            <Array as="points">
              <mxPoint x="-1040" y="687" />
              <mxPoint x="-1040" y="550" />
            </Array>
          </mxGeometry>
        </mxCell>
        <mxCell id="D5vVqQVgLM8rnLh1jBMB-64" value="+ usersetting: int" style="text;strokeColor=none;fillColor=none;align=left;verticalAlign=top;spacingLeft=4;spacingRight=4;overflow=hidden;rotatable=0;points=[[0,0.5],[1,0.5]];portConstraint=eastwest;container=0;" parent="1" vertex="1">
          <mxGeometry x="-1288.661309090909" y="538.7118181818182" width="243.66501818181825" height="22.513636363636365" as="geometry" />
        </mxCell>
        <mxCell id="D5vVqQVgLM8rnLh1jBMB-65" value="" style="line;strokeWidth=1;fillColor=none;align=left;verticalAlign=middle;spacingTop=-1;spacingLeft=3;spacingRight=3;rotatable=0;labelPosition=right;points=[];portConstraint=eastwest;strokeColor=inherit;container=0;" parent="1" vertex="1">
          <mxGeometry x="-1288.661309090909" y="561.2254545454546" width="243.66501818181825" height="6.927272727272728" as="geometry" />
        </mxCell>
        <mxCell id="D5vVqQVgLM8rnLh1jBMB-66" value="+ push_sensor_data(String path, int data):&#xa;+ get_user_setting(String path):&#xa;                          int usersetting)&#xa;- compare_data_with_setting&#xa;            (int data, int usersetting):&#xa;                                boolean onoff&#xa;- check_time_sensor(datetime time):&#xa;                                 boolean check" style="text;strokeColor=none;fillColor=none;align=left;verticalAlign=top;spacingLeft=4;spacingRight=4;overflow=hidden;rotatable=0;points=[[0,0.5],[1,0.5]];portConstraint=eastwest;container=0;" parent="1" vertex="1">
          <mxGeometry x="-1288.66" y="568.15" width="243.66" height="130.85" as="geometry" />
        </mxCell>
        <mxCell id="vbS9MfJy5DjZ6YqkpRvB-6" value="" style="group" vertex="1" connectable="0" parent="1">
          <mxGeometry x="-1798" y="87" width="447" height="381" as="geometry" />
        </mxCell>
        <mxCell id="D5vVqQVgLM8rnLh1jBMB-82" value="" style="shape=folder;fontStyle=1;spacingTop=10;tabWidth=140;tabHeight=34;tabPosition=left;html=1;" parent="vbS9MfJy5DjZ6YqkpRvB-6" vertex="1">
          <mxGeometry width="447" height="381" as="geometry" />
        </mxCell>
        <mxCell id="D5vVqQVgLM8rnLh1jBMB-93" value="User Interface 패키지" style="text;html=1;align=center;verticalAlign=middle;resizable=0;points=[];autosize=1;strokeColor=none;fillColor=none;" parent="vbS9MfJy5DjZ6YqkpRvB-6" vertex="1">
          <mxGeometry width="140" height="30" as="geometry" />
        </mxCell>
        <mxCell id="D5vVqQVgLM8rnLh1jBMB-94" style="edgeStyle=orthogonalEdgeStyle;rounded=0;orthogonalLoop=1;jettySize=auto;html=1;endArrow=none;endFill=0;startArrow=block;startFill=0;dashed=1;" parent="vbS9MfJy5DjZ6YqkpRvB-6" source="D5vVqQVgLM8rnLh1jBMB-95" target="D5vVqQVgLM8rnLh1jBMB-87" edge="1">
          <mxGeometry relative="1" as="geometry">
            <Array as="points">
              <mxPoint x="207" y="155" />
              <mxPoint x="207" y="97" />
            </Array>
          </mxGeometry>
        </mxCell>
        <mxCell id="D5vVqQVgLM8rnLh1jBMB-95" value="&lt;&lt;interface&gt;&gt; &#xa;모드" style="swimlane;fontStyle=1;align=center;verticalAlign=top;childLayout=stackLayout;horizontal=1;startSize=40;horizontalStack=0;resizeParent=1;resizeParentMax=0;resizeLast=0;collapsible=1;marginBottom=0;" parent="vbS9MfJy5DjZ6YqkpRvB-6" vertex="1">
          <mxGeometry x="18.244897959183675" y="94.3252427184466" width="173.3265306122449" height="125.07766990291263" as="geometry" />
        </mxCell>
        <mxCell id="D5vVqQVgLM8rnLh1jBMB-96" value="+ String path&#xa;+ int mode" style="text;strokeColor=none;fillColor=none;align=left;verticalAlign=top;spacingLeft=4;spacingRight=4;overflow=hidden;rotatable=0;points=[[0,0.5],[1,0.5]];portConstraint=eastwest;" parent="D5vVqQVgLM8rnLh1jBMB-95" vertex="1">
          <mxGeometry y="40" width="173.3265306122449" height="40.689320388349515" as="geometry" />
        </mxCell>
        <mxCell id="D5vVqQVgLM8rnLh1jBMB-97" value="" style="line;strokeWidth=1;fillColor=none;align=left;verticalAlign=middle;spacingTop=-1;spacingLeft=3;spacingRight=3;rotatable=0;labelPosition=right;points=[];portConstraint=eastwest;strokeColor=inherit;" parent="D5vVqQVgLM8rnLh1jBMB-95" vertex="1">
          <mxGeometry y="80.68932038834951" width="173.3265306122449" height="7.398058252427185" as="geometry" />
        </mxCell>
        <mxCell id="D5vVqQVgLM8rnLh1jBMB-98" value="+ send_mode(String path,&#xa;                    int mode)" style="text;strokeColor=none;fillColor=none;align=left;verticalAlign=top;spacingLeft=4;spacingRight=4;overflow=hidden;rotatable=0;points=[[0,0.5],[1,0.5]];portConstraint=eastwest;" parent="D5vVqQVgLM8rnLh1jBMB-95" vertex="1">
          <mxGeometry y="88.0873786407767" width="173.3265306122449" height="36.990291262135926" as="geometry" />
        </mxCell>
        <mxCell id="D5vVqQVgLM8rnLh1jBMB-99" style="edgeStyle=orthogonalEdgeStyle;rounded=0;orthogonalLoop=1;jettySize=auto;html=1;startArrow=none;startFill=0;endArrow=block;endFill=0;dashed=1;" parent="vbS9MfJy5DjZ6YqkpRvB-6" source="D5vVqQVgLM8rnLh1jBMB-92" target="D5vVqQVgLM8rnLh1jBMB-95" edge="1">
          <mxGeometry relative="1" as="geometry">
            <Array as="points">
              <mxPoint x="207" y="197" />
              <mxPoint x="207" y="155" />
            </Array>
          </mxGeometry>
        </mxCell>
        <mxCell id="vbS9MfJy5DjZ6YqkpRvB-11" value="" style="group" vertex="1" connectable="0" parent="vbS9MfJy5DjZ6YqkpRvB-6">
          <mxGeometry x="221" y="36.99" width="225" height="340.42" as="geometry" />
        </mxCell>
        <mxCell id="D5vVqQVgLM8rnLh1jBMB-83" value="관찰일지 인터페이스" style="swimlane;fontStyle=1;align=center;verticalAlign=top;childLayout=stackLayout;horizontal=1;startSize=26;horizontalStack=0;resizeParent=1;resizeParentMax=0;resizeLast=0;collapsible=1;marginBottom=0;" parent="vbS9MfJy5DjZ6YqkpRvB-11" vertex="1">
          <mxGeometry x="3.026905829596459" y="199.74905398853494" width="221.9730941704035" height="140.67075321564042" as="geometry" />
        </mxCell>
        <mxCell id="D5vVqQVgLM8rnLh1jBMB-84" value="+ date: datetime&#xa;" style="text;strokeColor=none;fillColor=none;align=left;verticalAlign=top;spacingLeft=4;spacingRight=4;overflow=hidden;rotatable=0;points=[[0,0.5],[1,0.5]];portConstraint=eastwest;" parent="D5vVqQVgLM8rnLh1jBMB-83" vertex="1">
          <mxGeometry y="26" width="221.9730941704035" height="31.441980720417536" as="geometry" />
        </mxCell>
        <mxCell id="D5vVqQVgLM8rnLh1jBMB-85" value="" style="line;strokeWidth=1;fillColor=none;align=left;verticalAlign=middle;spacingTop=-1;spacingLeft=3;spacingRight=3;rotatable=0;labelPosition=right;points=[];portConstraint=eastwest;strokeColor=inherit;" parent="D5vVqQVgLM8rnLh1jBMB-83" vertex="1">
          <mxGeometry y="57.44198072041753" width="221.9730941704035" height="7.398113110686478" as="geometry" />
        </mxCell>
        <mxCell id="D5vVqQVgLM8rnLh1jBMB-86" value="- make_graph(int[ ] daily_data ) :&#xa;+ request_data(datetime datetime) : &#xa;                                int [] daily_data&#xa;+ request_picture(datetime datetime):&#xa;                                uri" style="text;strokeColor=none;fillColor=none;align=left;verticalAlign=top;spacingLeft=4;spacingRight=4;overflow=hidden;rotatable=0;points=[[0,0.5],[1,0.5]];portConstraint=eastwest;" parent="D5vVqQVgLM8rnLh1jBMB-83" vertex="1">
          <mxGeometry y="64.84009383110401" width="221.9730941704035" height="75.8306593845364" as="geometry" />
        </mxCell>
        <mxCell id="D5vVqQVgLM8rnLh1jBMB-87" value="수동조절 인터페이스" style="swimlane;fontStyle=1;align=center;verticalAlign=top;childLayout=stackLayout;horizontal=1;startSize=26;horizontalStack=0;resizeParent=1;resizeParentMax=0;resizeLast=0;collapsible=1;marginBottom=0;" parent="vbS9MfJy5DjZ6YqkpRvB-11" vertex="1">
          <mxGeometry width="221.9730941704035" height="94.43254627384992" as="geometry" />
        </mxCell>
        <mxCell id="D5vVqQVgLM8rnLh1jBMB-88" value="" style="line;strokeWidth=1;fillColor=none;align=left;verticalAlign=middle;spacingTop=-1;spacingLeft=3;spacingRight=3;rotatable=0;labelPosition=right;points=[];portConstraint=eastwest;strokeColor=inherit;" parent="D5vVqQVgLM8rnLh1jBMB-87" vertex="1">
          <mxGeometry y="26" width="221.9730941704035" height="7.398113110686478" as="geometry" />
        </mxCell>
        <mxCell id="D5vVqQVgLM8rnLh1jBMB-89" value="- send_data(String path, &#xa;                    boolean onoff):&#xa;- get_realon(String path) :&#xa;                    boolean onoff" style="text;strokeColor=none;fillColor=none;align=left;verticalAlign=top;spacingLeft=4;spacingRight=4;overflow=hidden;rotatable=0;points=[[0,0.5],[1,0.5]];portConstraint=eastwest;" parent="D5vVqQVgLM8rnLh1jBMB-87" vertex="1">
          <mxGeometry y="33.39811311068648" width="221.9730941704035" height="61.03443316316344" as="geometry" />
        </mxCell>
        <mxCell id="D5vVqQVgLM8rnLh1jBMB-90" value="자동조절 인터페이스" style="swimlane;fontStyle=1;align=center;verticalAlign=top;childLayout=stackLayout;horizontal=1;startSize=26;horizontalStack=0;resizeParent=1;resizeParentMax=0;resizeLast=0;collapsible=1;marginBottom=0;" parent="vbS9MfJy5DjZ6YqkpRvB-11" vertex="1">
          <mxGeometry y="101.72405527193906" width="221.9730941704035" height="87.03443316316344" as="geometry" />
        </mxCell>
        <mxCell id="D5vVqQVgLM8rnLh1jBMB-91" value="" style="line;strokeWidth=1;fillColor=none;align=left;verticalAlign=middle;spacingTop=-1;spacingLeft=3;spacingRight=3;rotatable=0;labelPosition=right;points=[];portConstraint=eastwest;strokeColor=inherit;" parent="D5vVqQVgLM8rnLh1jBMB-90" vertex="1">
          <mxGeometry y="26" width="221.9730941704035" height="7.398113110686477" as="geometry" />
        </mxCell>
        <mxCell id="D5vVqQVgLM8rnLh1jBMB-92" value="&#xa;- send_user_setting(String path,&#xa;                    int setting):" style="text;strokeColor=none;fillColor=none;align=left;verticalAlign=top;spacingLeft=4;spacingRight=4;overflow=hidden;rotatable=0;points=[[0,0.5],[1,0.5]];portConstraint=eastwest;" parent="D5vVqQVgLM8rnLh1jBMB-90" vertex="1">
          <mxGeometry y="33.39811311068648" width="221.9730941704035" height="53.63632005247696" as="geometry" />
        </mxCell>
        <mxCell id="D5vVqQVgLM8rnLh1jBMB-80" style="edgeStyle=orthogonalEdgeStyle;rounded=0;orthogonalLoop=1;jettySize=auto;html=1;exitX=0;exitY=0.5;exitDx=0;exitDy=0;endArrow=classic;endFill=1;entryX=1;entryY=0.5;entryDx=0;entryDy=0;" parent="1" source="D5vVqQVgLM8rnLh1jBMB-64" target="D5vVqQVgLM8rnLh1jBMB-84" edge="1">
          <mxGeometry relative="1" as="geometry">
            <mxPoint x="-1105" y="669" as="targetPoint" />
            <mxPoint x="-1105" y="602.9999999999999" as="sourcePoint" />
            <Array as="points">
              <mxPoint x="-1320" y="550" />
              <mxPoint x="-1320" y="366" />
            </Array>
          </mxGeometry>
        </mxCell>
        <mxCell id="vbS9MfJy5DjZ6YqkpRvB-7" value="" style="group" vertex="1" connectable="0" parent="1">
          <mxGeometry x="-1023" y="487" width="190" height="326.14" as="geometry" />
        </mxCell>
        <mxCell id="D5vVqQVgLM8rnLh1jBMB-112" value="Sensor_temp" style="swimlane;fontStyle=1;align=center;verticalAlign=top;childLayout=stackLayout;horizontal=1;startSize=26;horizontalStack=0;resizeParent=1;resizeParentMax=0;resizeLast=0;collapsible=1;marginBottom=0;container=0;" parent="vbS9MfJy5DjZ6YqkpRvB-7" vertex="1">
          <mxGeometry x="-4" width="181" height="81.12" as="geometry" />
        </mxCell>
        <mxCell id="D5vVqQVgLM8rnLh1jBMB-116" value="Sensor_humi" style="swimlane;fontStyle=1;align=center;verticalAlign=top;childLayout=stackLayout;horizontal=1;startSize=26;horizontalStack=0;resizeParent=1;resizeParentMax=0;resizeLast=0;collapsible=1;marginBottom=0;container=0;" parent="vbS9MfJy5DjZ6YqkpRvB-7" vertex="1">
          <mxGeometry x="-4" y="81.96" width="181" height="81.12" as="geometry" />
        </mxCell>
        <mxCell id="D5vVqQVgLM8rnLh1jBMB-120" value="Sensor_soil_humi" style="swimlane;fontStyle=1;align=center;verticalAlign=top;childLayout=stackLayout;horizontal=1;startSize=26;horizontalStack=0;resizeParent=1;resizeParentMax=0;resizeLast=0;collapsible=1;marginBottom=0;container=0;" parent="vbS9MfJy5DjZ6YqkpRvB-7" vertex="1">
          <mxGeometry x="-4" y="166.51" width="183" height="77.67" as="geometry" />
        </mxCell>
        <mxCell id="D5vVqQVgLM8rnLh1jBMB-124" value="Sensor_light" style="swimlane;fontStyle=1;align=center;verticalAlign=top;childLayout=stackLayout;horizontal=1;startSize=26;horizontalStack=0;resizeParent=1;resizeParentMax=0;resizeLast=0;collapsible=1;marginBottom=0;container=0;" parent="vbS9MfJy5DjZ6YqkpRvB-7" vertex="1">
          <mxGeometry x="-4" y="248.47" width="187" height="77.67" as="geometry" />
        </mxCell>
        <mxCell id="D5vVqQVgLM8rnLh1jBMB-113" value="+ temp: int" style="text;strokeColor=none;fillColor=none;align=left;verticalAlign=top;spacingLeft=4;spacingRight=4;overflow=hidden;rotatable=0;points=[[0,0.5],[1,0.5]];portConstraint=eastwest;container=0;" parent="vbS9MfJy5DjZ6YqkpRvB-7" vertex="1">
          <mxGeometry y="25.904974032826942" width="142.99518534729444" height="22.431352514788788" as="geometry" />
        </mxCell>
        <mxCell id="D5vVqQVgLM8rnLh1jBMB-114" value="" style="line;strokeWidth=1;fillColor=none;align=left;verticalAlign=middle;spacingTop=-1;spacingLeft=3;spacingRight=3;rotatable=0;labelPosition=right;points=[];portConstraint=eastwest;strokeColor=inherit;container=0;" parent="vbS9MfJy5DjZ6YqkpRvB-7" vertex="1">
          <mxGeometry y="48.33632654761577" width="142.99518534729444" height="6.901954619935011" as="geometry" />
        </mxCell>
        <mxCell id="D5vVqQVgLM8rnLh1jBMB-115" value="# read_temp(): int temp" style="text;strokeColor=none;fillColor=none;align=left;verticalAlign=top;spacingLeft=4;spacingRight=4;overflow=hidden;rotatable=0;points=[[0,0.5],[1,0.5]];portConstraint=eastwest;container=0;" parent="vbS9MfJy5DjZ6YqkpRvB-7" vertex="1">
          <mxGeometry y="55.238281167550845" width="142.99518534729444" height="25.882329824756294" as="geometry" />
        </mxCell>
        <mxCell id="D5vVqQVgLM8rnLh1jBMB-117" value="+ humi: int" style="text;strokeColor=none;fillColor=none;align=left;verticalAlign=top;spacingLeft=4;spacingRight=4;overflow=hidden;rotatable=0;points=[[0,0.5],[1,0.5]];portConstraint=eastwest;container=0;" parent="vbS9MfJy5DjZ6YqkpRvB-7" vertex="1">
          <mxGeometry y="107.86568514455524" width="142.99518534729444" height="22.431352514788788" as="geometry" />
        </mxCell>
        <mxCell id="D5vVqQVgLM8rnLh1jBMB-118" value="" style="line;strokeWidth=1;fillColor=none;align=left;verticalAlign=middle;spacingTop=-1;spacingLeft=3;spacingRight=3;rotatable=0;labelPosition=right;points=[];portConstraint=eastwest;strokeColor=inherit;container=0;" parent="vbS9MfJy5DjZ6YqkpRvB-7" vertex="1">
          <mxGeometry y="130.297037659344" width="142.99518534729444" height="6.901954619935011" as="geometry" />
        </mxCell>
        <mxCell id="D5vVqQVgLM8rnLh1jBMB-119" value="# read_humi(): int humi" style="text;strokeColor=none;fillColor=none;align=left;verticalAlign=top;spacingLeft=4;spacingRight=4;overflow=hidden;rotatable=0;points=[[0,0.5],[1,0.5]];portConstraint=eastwest;container=0;" parent="vbS9MfJy5DjZ6YqkpRvB-7" vertex="1">
          <mxGeometry y="137.19899227927908" width="142.99518534729444" height="25.882329824756294" as="geometry" />
        </mxCell>
        <mxCell id="D5vVqQVgLM8rnLh1jBMB-121" value="+ soil_humi: int" style="text;strokeColor=none;fillColor=none;align=left;verticalAlign=top;spacingLeft=4;spacingRight=4;overflow=hidden;rotatable=0;points=[[0,0.5],[1,0.5]];portConstraint=eastwest;container=0;" parent="vbS9MfJy5DjZ6YqkpRvB-7" vertex="1">
          <mxGeometry y="192.41462923875915" width="142.99518534729444" height="22.431352514788788" as="geometry" />
        </mxCell>
        <mxCell id="D5vVqQVgLM8rnLh1jBMB-122" value="" style="line;strokeWidth=1;fillColor=none;align=left;verticalAlign=middle;spacingTop=-1;spacingLeft=3;spacingRight=3;rotatable=0;labelPosition=right;points=[];portConstraint=eastwest;strokeColor=inherit;container=0;" parent="vbS9MfJy5DjZ6YqkpRvB-7" vertex="1">
          <mxGeometry y="214.8459817535479" width="142.99518534729444" height="6.901954619935011" as="geometry" />
        </mxCell>
        <mxCell id="D5vVqQVgLM8rnLh1jBMB-123" value="# read_soil_humi(): int soil_humi" style="text;strokeColor=none;fillColor=none;align=left;verticalAlign=top;spacingLeft=4;spacingRight=4;overflow=hidden;rotatable=0;points=[[0,0.5],[1,0.5]];portConstraint=eastwest;container=0;" parent="vbS9MfJy5DjZ6YqkpRvB-7" vertex="1">
          <mxGeometry y="221.75" width="184" height="22.43" as="geometry" />
        </mxCell>
        <mxCell id="D5vVqQVgLM8rnLh1jBMB-125" value="+ light: int" style="text;strokeColor=none;fillColor=none;align=left;verticalAlign=top;spacingLeft=4;spacingRight=4;overflow=hidden;rotatable=0;points=[[0,0.5],[1,0.5]];portConstraint=eastwest;container=0;" parent="vbS9MfJy5DjZ6YqkpRvB-7" vertex="1">
          <mxGeometry x="0.004814652705504234" y="274.37534035048736" width="142.99518534729444" height="22.431352514788788" as="geometry" />
        </mxCell>
        <mxCell id="D5vVqQVgLM8rnLh1jBMB-126" value="" style="line;strokeWidth=1;fillColor=none;align=left;verticalAlign=middle;spacingTop=-1;spacingLeft=3;spacingRight=3;rotatable=0;labelPosition=right;points=[];portConstraint=eastwest;strokeColor=inherit;container=0;" parent="vbS9MfJy5DjZ6YqkpRvB-7" vertex="1">
          <mxGeometry x="0.004814652705504234" y="296.80669286527615" width="142.99518534729444" height="6.901954619935011" as="geometry" />
        </mxCell>
        <mxCell id="D5vVqQVgLM8rnLh1jBMB-127" value="# read_light(): int light" style="text;strokeColor=none;fillColor=none;align=left;verticalAlign=top;spacingLeft=4;spacingRight=4;overflow=hidden;rotatable=0;points=[[0,0.5],[1,0.5]];portConstraint=eastwest;container=0;" parent="vbS9MfJy5DjZ6YqkpRvB-7" vertex="1">
          <mxGeometry x="0.004814652705504234" y="303.7086474852112" width="142.99518534729444" height="22.431352514788788" as="geometry" />
        </mxCell>
      </root>
    </mxGraphModel>
  </diagram>
</mxfile>
